PathFileType	4	(X/Y/Z)	C:/Users/beibeiliu/ov580/test_trc/User1\sequence.30_training_dense_right.trc
DataRate	CameraRate	NumFrames	NumMarkers	Units	OrigDataRate	OrigDataStartFrame	OrigNumFrames
120	120	24	19	mm	120	57	227
Frame#	Time	ThumbCMC			ThumbMCP			ThumbIP			ThumbTip			IndexMCP			IndexPIP			IndexTip			MiddleMCP			MiddlePIP			MiddleTip			RingMCP			RingPIP			RingTip			PinkyMCP			PinkyPIP			PinkyTip			BackHand1			BackHand2			BackHand3	
		X0	Y0	Z0	X1	Y1	Z1	X2	Y2	Z2	X3	Y3	Z3	X4	Y4	Z4	X5	Y5	Z5	X6	Y6	Z6	X7	Y7	Z7	X8	Y8	Z8	X9	Y9	Z9	X10	Y10	Z10	X11	Y11	Z11	X12	Y12	Z12	X13	Y13	Z13	X14	Y14	Z14	X15	Y15	Z15	X16	Y16	Z16	X17	Y17	Z17	X18	Y18	Z18	
56	0.466667	206.744	-11.2784	84.3372	224.216	3.50425	61.0886	238.803	5.92362	40.031	251.788	14.1114	21.3119	223.491	-60.1631	19.8624	234.47	-71.9955	4.01323	242.6	-90.324	-16.371	203.264	-79.7073	17.153	209.917	-96.277	-2.72588	218.549	-114.995	-26.5592	174.556	-77.524	9.77345	172.952	-90.6203	-17.3122	170.98	-95.4479	-41.7712	143.692	-67.2268	14.9817	132.645	-69.5497	-3.53298	128.476	-74.2987	-27.8776	166.798	-65.4999	63.1475	161.471	-59.1505	95.0106	196.609	-48.9037	78.7012	
57	0.475	206.786	-8.96866	85.6951	226.309	3.45238	60.5211	242.875	7.67222	38.5575	250.02	14.0235	23.5264	225.701	-57.7983	23.4122	234.903	-74.9507	5.04494	242.146	-91.5161	-16.2542	202.312	-80.8704	18.3024	213.968	-99.2272	-2.44432	218.283	-116.188	-24.5628	172.542	-79.7531	12.0278	175.709	-91.7073	-13.5986	178.145	-96.9963	-40.8322	140.329	-69.8825	15.1298	138.276	-71.1967	-3.11448	132.526	-78.7057	-29.8964	170.714	-64.2174	64.7657	161.651	-59.2389	93.2284	196.144	-48.3379	79.9133	
58	0.483333	207.025	-9.6095	83.689	223.864	6.02603	63.2189	241.555	9.86959	43.8819	251.495	14.2293	22.2195	224.215	-58.0053	23.6371	239.27	-74.1348	5.57012	245.174	-89.2492	-13.9643	203.43	-79.2254	20.5101	212.719	-101.051	-2.19987	223.862	-117.278	-25.5597	178.052	-79.2244	12.3146	175.445	-92.8922	-14.6736	178.022	-98.2039	-37.7039	141.643	-70.1269	17.4752	136.641	-73.0394	-2.39211	132.837	-81.8514	-25.4026	167.199	-63.6898	65.5149	160.292	-57.1013	98.5365	196.438	-46.7709	82.5837	
59	0.491667	205.45	-8.97213	84.4136	225.949	6.72515	64.2656	238.415	6.25149	39.7668	250.949	14.8019	23.7229	227.451	-56.1689	24.3712	236.05	-73.3398	6.18094	241.948	-91.5025	-14.372	205.169	-81.3943	18.1766	214.368	-99.7296	-1.22364	221.129	-115.876	-22.4902	175.024	-81.4454	12.0931	175.818	-93.93	-13.045	175.113	-99.812	-37.2531	141.605	-70.2235	20.1708	135.097	-73.6186	0.645203	134.796	-80.4487	-22.5147	170.342	-64.6343	61.7183	161.46	-57.4904	98.395	196.049	-47.4525	83.5378	
60	0.5	207.902	-5.94645	86.9279	221.727	4.21697	62.2495	239.822	8.30706	42.0418	254.003	16.3747	23.1971	226.011	-59.9314	23.0264	238.715	-74.6608	3.51914	245.821	-91.0651	-15.404	205.644	-77.9875	21.0828	216.104	-95.4706	-0.200344	219.635	-119.174	-26.6281	174.365	-82.439	9.80395	175.152	-91.9842	-13.1411	174.296	-99.2811	-39.3881	140.462	-69.1709	20.5868	139.067	-72.8919	-2.93523	131.5	-82.0389	-20.3457	169.078	-65.9389	64.002	161.957	-58.3449	97.4121	198.058	-48.4955	80.6352	
61	0.508333	208.525	-7.89114	83.887	224.93	8.5319	64.6616	241.631	10.3915	41.3984	250.155	14.6162	22.7387	225.3	-55.181	25.0646	234.19	-74.7516	3.11104	243.341	-86.477	-14.9094	201	-77.9968	20.223	215.562	-96.4255	-2.05901	220.816	-113.876	-26.0362	176.721	-78.6865	11.3656	176.94	-89.9986	-11.1962	173.994	-97.18	-37.601	143.577	-69.1453	17.0764	136.366	-71.8108	1.82362	133.562	-83.3263	-25.1874	168.479	-64.0932	62.4897	161.912	-57.5607	96.2703	200.012	-45.3239	81.8113	
62	0.516667	208.737	-6.71379	85.5829	222.821	7.47519	62.9557	241.065	9.3186	38.5908	252.047	16.8183	23.0749	221.414	-55.6918	23.676	230.269	-71.3311	4.23583	242.217	-86.3484	-17.1622	202.688	-81.2788	17.4494	212.916	-94.6942	-2.54172	216.093	-114.691	-29.5191	171.583	-77.8457	12.7878	177.035	-89.6779	-15.8922	172.923	-96.548	-42.9178	139.208	-67.5745	20.5169	135.915	-71.4818	-1.42053	133.959	-80.228	-25.4387	168.058	-62.0467	65.6269	159.284	-57.3019	98.7215	196.66	-45.1952	79.8083	
63	0.525	208.704	-5.91333	83.7833	222.421	7.75153	61.5223	239.751	11.8875	40.7151	252.728	19.6597	20.8337	219.66	-54.9143	21.145	235.009	-68.8952	0.872437	236.23	-84.7476	-22.7801	199.107	-76.9536	16.622	208.012	-91.5883	-3.81989	211.767	-112.603	-33.7974	169.029	-75.4534	12.159	169.911	-86.1746	-15.7808	167.597	-89.0425	-42.0448	138.038	-65.072	19.9842	136.254	-67.4838	1.00203	130.36	-77.636	-22.5951	167.989	-63.762	62.6604	159.729	-55.0724	98.5076	197.656	-43.058	79.4116	
64	0.533333	204.862	-4.28376	88.2195	223.9	8.82499	60.7147	236.887	14.8224	41.8808	248.713	19.7296	20.2762	220.994	-50.0113	20.7354	231.673	-65.95	-4.83548	232.468	-79.4618	-27.5338	199.947	-72.5639	13.3539	202.362	-88.8703	-9.97919	208.45	-102.966	-37.0291	167.421	-71.9035	9.35531	164.648	-81.6722	-22.8602	163.384	-78.8137	-44.9741	138.067	-62.1768	17.9874	131.402	-64.7732	-2.17219	125.173	-72.5997	-22.8166	165.167	-62.1306	61.1718	159.367	-56.0204	97.2354	194.358	-43.032	80.467	
65	0.541667	205.589	-3.70241	86.4824	217.453	8.99018	61.1653	233.495	13.7974	40.6626	243.059	21.1243	21.2619	215.877	-47.2706	17.5377	221.072	-62.4912	-8.7202	224.948	-72.5667	-29.7585	191.71	-72.6084	8.00565	195.849	-82.1894	-14.9196	199.322	-92.1203	-43.4242	165.31	-66.4679	4.16757	162.23	-70.0077	-24.2873	156.794	-63.9047	-51.4777	134.645	-58.8005	16.2658	125.056	-59.5713	-4.09774	123.035	-63.7313	-24.6342	163.161	-59.5428	63.7241	159.684	-52.8568	98.0158	193.359	-45.477	77.7194	
66	0.55	205.648	-3.46271	86.179	215.395	10.6157	62.2604	232.394	14.1856	37.5664	239.592	21.2103	19.344	210.422	-45.4851	11.3255	218.312	-54.7237	-9.53886	220.58	-66.351	-38.228	185.65	-63.1195	5.29281	186.765	-71.8971	-23.0039	183.594	-78.4389	-55.879	156.658	-60.8342	0.321593	150.781	-57.8791	-29.3565	145.215	-45.6154	-50.3094	129.553	-54.695	18.6702	122.585	-53.6253	1.78496	112.352	-55.328	-24.1409	159.631	-60.2086	59.998	157.336	-53.7833	95.0927	191.172	-42.1685	78.8089	
67	0.558333	205.915	-2.49712	86.0613	214.648	11.6627	60.9747	226.175	14.8199	35.3173	237.932	25.3179	19.9113	204.329	-40.2138	7.91156	210.779	-47.5108	-17.1106	208.136	-56.5515	-43.9234	180.243	-54.0826	-4.27932	175.066	-58.2931	-29.3483	168.381	-57.6197	-60.1071	148.615	-51.3226	3.47433	141.921	-43.3201	-26.3358	132.103	-24.1423	-46.3217	122.037	-48.2554	21.5399	115.414	-45.6025	-2.64966	106.11	-44.7729	-22.5101	157.679	-54.7566	61.9996	154.78	-53.8589	97.4076	192.159	-40.5343	74.3434	
68	0.566667	204.192	-1.84012	84.4595	212.054	12.6702	61.7987	228.983	20.3436	37.1949	237.725	28.505	19.6668	199.352	-34.1348	5.92408	201.665	-41.7602	-19.7068	203.659	-45.1129	-47.4237	170.785	-48.5308	-8.78105	165.636	-44.9874	-34.2836	155.994	-36.1826	-64.6992	141.783	-44.7683	0.0374395	135.383	-31.3167	-26.5496	124.77	-6.65889	-44.4414	120.025	-43.2984	19.2202	113.349	-38.5093	2.06407	103.19	-31.6548	-25.6616	157.962	-52.5108	60.1817	155.941	-53.2349	92.011	186.79	-41.2061	71.568	
69	0.575	201.532	-4.06271	79.0694	212.832	12.9858	59.5617	226.898	19.9483	32.3344	234.524	30.7944	18.8045	200.162	-29.7798	-1.64951	200.239	-34.4041	-25.4934	198.024	-37.4114	-51.7706	168.956	-40.1277	-10.483	162.267	-32.2427	-38.1172	144.089	-17.3284	-63.9709	140.318	-39.632	-0.0709242	132.027	-23.6999	-25.3423	115.624	1.44824	-38.0067	120.004	-38.7779	15.9312	106.767	-32.8585	2.48182	99.7665	-20.8792	-20.5156	154.975	-53.001	55.3829	160.706	-50.8552	92.8988	189.592	-36.4798	72.466	
70	0.583333	202.321	-2.59244	80.3409	214.083	14.1198	56.0398	228.716	22.7533	32.401	235.555	32.4426	14.7475	194.325	-27.8053	-5.9739	196.139	-28.5921	-29.8774	192.846	-28.157	-59.913	162.554	-36.3226	-10.9117	158.565	-23.8985	-37.1548	138.811	-5.59182	-58.9952	140.572	-34.1719	-1.14739	129.147	-17.893	-24.9079	117.712	9.34584	-34.6278	118.666	-35.3078	15.4295	106.246	-22.7415	-0.682304	103.344	-8.94944	-18.6265	154.333	-50.6804	53.2772	159.924	-51.0661	87.2865	189.716	-38.9289	67.8583	
71	0.591667	203.896	-2.36908	78.2746	218.055	15.6463	58.1739	223.53	22.6429	29.6649	234.172	34.7321	10.7288	193.423	-22.5106	-5.65401	188.278	-22.502	-33.6317	185.525	-18.138	-57.3992	162.737	-28.9001	-14.5166	153.024	-16.7036	-36.5958	134.069	9.43381	-56.6751	137.576	-30.2619	-1.87932	121.9	-12.0755	-19.5546	111.794	19.6825	-25.5482	116.972	-32.6981	20.9351	108.552	-18.2426	4.42533	102.684	2.8326	-8.77458	156.388	-52.8494	56.0885	162.999	-51.2059	92.2326	190.007	-35.1698	70.3058	
72	0.6	203.957	-1.18342	80.7515	216.523	16.4752	53.9311	222.083	24.5122	28.2368	228.945	36.8121	9.87325	188.958	-19.168	-5.08213	183.581	-15.0989	-36.3527	173.493	-8.577	-60.6902	159.143	-25.538	-13.0592	143.992	-10.0936	-35.2041	128.412	14.995	-48.0461	136.793	-29.0605	0.563085	121.214	-3.64165	-16.7227	105.559	22.8538	-12.6934	118.339	-32.8643	22.1819	106.378	-10.4474	8.3815	99.1015	14.886	0.119426	158.951	-52.8427	54.7248	164.05	-54.1874	86.0403	193.385	-33.9101	63.6166	
73	0.608333	204.36	-0.0666364	74.9849	218.281	20.8566	55.1063	219.648	28.9419	28.6889	226.209	40.2552	10.7634	187.654	-13.9778	-9.51073	182.209	-5.98138	-35.8587	168.364	-0.0824969	-58.2669	158.108	-22.5994	-13.5342	141.991	-7.06441	-31.0744	121.221	18.8682	-42.1518	136.593	-27.754	0.978292	114.209	-3.5095	-12.3174	102.747	23.8465	-4.5213	117.023	-33.9609	22.8683	102.467	-12.4537	13.0876	99.4595	17.5881	7.10143	162.083	-50.5324	50.6776	169.103	-52.7686	87.3104	194.562	-31.9344	65.0017	
74	0.616667	202.607	3.23278	74.946	212.102	22.6191	51.1343	216.306	32.7391	28.5726	220.478	44.8358	8.76263	184.839	-9.773	-10.9554	174.848	-1.37865	-38.1842	155.677	5.69552	-56.4081	156.259	-21.1593	-13.8004	135.31	-5.49823	-30.8685	113.468	15.9943	-37.5554	135.609	-30.5379	1.24682	110.96	-3.46036	-8.93376	99.8158	17.8793	-1.09499	118.867	-38.6526	21.8186	103.241	-14.8724	12.318	102.03	13.7945	11.5032	163.049	-53.8998	49.0288	172.905	-53.4073	86.857	195.891	-31.7176	59.5444	
75	0.625	202.281	5.82955	73.513	210.32	26.9722	53.9166	213.778	37.8921	29.6978	219.239	51.0993	7.79083	181.512	-6.21219	-13.4919	168.397	2.65802	-36.548	149.378	14.3312	-53.9256	159.534	-21.9866	-12.0254	135.621	-4.47287	-31.1865	107.031	17.3528	-34.3723	133.699	-32.4557	-1.74968	115.384	-12.92	-10.8289	97.39	11.3035	0.587635	122.687	-45.9375	21.6256	105.069	-27.8081	11.4328	98.6966	4.71487	12.4624	167.206	-55.3553	49.3221	176.215	-53.3873	85.639	199.807	-29.4555	58.9528	
76	0.633333	200.996	8.01983	74.8022	206.995	29.1544	48.5776	207.662	39.8882	26.6331	212.368	55.564	8.75614	179.645	-8.02469	-10.5544	165.338	5.80666	-34.2319	135.695	15.2724	-49.381	158.967	-23.3016	-13.3965	133.543	-9.64744	-29.9658	107.596	10.7421	-31.0269	141.047	-38.4247	-0.366051	113.069	-19.6256	-12.9471	96.1933	1.25563	-2.21007	128.158	-52.0377	20.9594	108.582	-37.268	8.78758	101.489	-4.25616	9.19253	173.392	-53.1688	54.0339	181.068	-56.8075	83.2759	200.251	-28.2043	64.1573	
77	0.641667	200.225	11.2233	73.6078	199.041	30.629	51.6215	202.354	42.1619	27.0128	203.169	57.3232	7.4178	177.588	-1.32887	-14.2974	157.514	6.0384	-32.1732	129.397	12.0489	-43.0552	158.281	-26.0196	-12.9866	136.145	-11.8815	-28.4785	102.899	1.97739	-28.8144	140.39	-46.0494	-3.22723	120.29	-29.4746	-15.5318	98.5246	-9.84716	-9.5977	130.544	-61.7324	23.3609	109.438	-48.2838	8.12029	98.247	-17.6055	7.70627	176.751	-53.6863	51.3515	183.88	-55.0664	83.5175	199.703	-27.6008	61.7406	
78	0.65	197.791	14.2356	74.7221	195.749	34.9789	52.7862	197.174	45.9015	21.3392	193.172	55.6752	3.08512	174.211	-4.49554	-9.6458	153.614	5.85302	-30.2832	123.714	8.57662	-38.9868	161.604	-29.2592	-10.3091	133.19	-21.287	-27.3788	102.534	-5.87099	-29.1066	146.103	-50.97	-1.53197	119.525	-41.1553	-17.6605	97.0593	-21.8927	-13.4019	136.202	-67.4764	20.6363	116.924	-62.532	6.31256	101.779	-35.9726	-3.00362	183.137	-53.7484	52.4146	192.572	-50.5784	86.0467	201.565	-24.1828	60.5153	
79	0.658333	193.93	16.1962	72.7391	191.878	36.7963	50.5077	187.482	44.8522	27.6681	185.427	55.5531	5.56715	170.148	-0.930221	-12.6778	146.137	0.240258	-29.5535	120.125	7.34991	-36.0676	163.156	-28.5186	-11.4218	135.998	-23.1327	-27.5307	99.3064	-9.97017	-30.5475	154.767	-51.8189	-0.137176	126.704	-45.8682	-20.6872	98.3661	-31.3994	-18.5329	144.564	-73.2067	20.978	128.993	-67.5526	2.3163	104.119	-51.7701	-10.1107	187.314	-52.2598	53.8643	195.69	-48.3438	83.5604	202.391	-19.0876	62.527	
